# xmcd CD database file
#
# Track frame offsets:
#	150
#	10087
#	24562
#	37015
#	51342
#	58017
#	79917
#	93937
#	111417
#	122767
#	141220
#	158915
#	173907
#	194925
#	208190
#	215682
#	231652
#
# Disc length: 3316 seconds
#
# Revision: 1
# Processed by: cddbd v1.5.2PL0 Copyright (c) Steve Scherf et al.
# Submitted via: CDex 1.70beta2
#
DISCID=060cf211
DTITLE=Various Artist - Ian McNamara's  Australia All Over II
DYEAR=1999
DGENRE=Country
TTITLE0=Macca (on a Sunday morning)
TTITLE1=G'day, g'day
TTITLE2=Days of old Khancoban
TTITLE3=Nightfire
TTITLE4=One more season of footy
TTITLE5=Aussie medley
TTITLE6=When currawongs come down
TTITLE7=Cootamundra wattle
TTITLE8=That song ... again
TTITLE9=Gumtree canoe
TTITLE10=Roisin
TTITLE11=Big fella wudumbah
TTITLE12=Now I'm easy
TTITLE13=Where it always rains
TTITLE14=Civilization
TTITLE15=Arnhem Land lullaby
TTITLE16=Happy birthday Australia
EXTD=YEAR: 1999
EXTT0=
EXTT1=
EXTT2=
EXTT3=
EXTT4=
EXTT5=
EXTT6=
EXTT7=
EXTT8=
EXTT9=
EXTT10=
EXTT11=
EXTT12=
EXTT13=
EXTT14=
EXTT15=
EXTT16=
PLAYORDER=
